<svg id="visual" viewBox="0 0 900 600" width="900" height="600" xmlns="http://www.w3.org/2000/svg" xmlns:xlink="http://www.w3.org/1999/xlink" version="1.1"><rect x="0" y="0" width="900" height="600" fill="#002233"></rect><path d="M277 0L259.2 16.7C241.3 33.3 205.7 66.7 204.8 100C204 133.3 238 166.7 253.8 200C269.7 233.3 267.3 266.7 255.2 300C243 333.3 221 366.7 226.7 400C232.3 433.3 265.7 466.7 275.3 500C285 533.3 271 566.7 264 583.3L257 600L0 600L0 583.3C0 566.7 0 533.3 0 500C0 466.7 0 433.3 0 400C0 366.7 0 333.3 0 300C0 266.7 0 233.3 0 200C0 166.7 0 133.3 0 100C0 66.7 0 33.3 0 16.7L0 0Z" fill="#0066FF" stroke-linecap="round" stroke-linejoin="miter"></path></svg>