<svg id="visual" viewBox="0 0 900 600" width="900" height="600" xmlns="http://www.w3.org/2000/svg" xmlns:xlink="http://www.w3.org/1999/xlink" version="1.1"><path d="M211 0L217.7 14.3C224.3 28.7 237.7 57.3 236.5 85.8C235.3 114.3 219.7 142.7 204.7 171.2C189.7 199.7 175.3 228.3 179 257C182.7 285.7 204.3 314.3 226.3 343C248.3 371.7 270.7 400.3 264.3 428.8C258 457.3 223 485.7 205.7 514.2C188.3 542.7 188.7 571.3 188.8 585.7L189 600L0 600L0 585.7C0 571.3 0 542.7 0 514.2C0 485.7 0 457.3 0 428.8C0 400.3 0 371.7 0 343C0 314.3 0 285.7 0 257C0 228.3 0 199.7 0 171.2C0 142.7 0 114.3 0 85.8C0 57.3 0 28.7 0 14.3L0 0Z" fill="#0066FF" stroke-linecap="round" stroke-linejoin="miter"></path></svg>