<svg id="visual" viewBox="0 0 900 675" width="900" height="675" xmlns="http://www.w3.org/2000/svg" xmlns:xlink="http://www.w3.org/1999/xlink" version="1.1"><g transform="translate(413.49235147251414 257.0059884610982)"><path d="M202.5 -226C282.8 -220.4 382.1 -188.4 402 -130C421.8 -71.5 362.1 13.4 313.7 83.3C265.3 153.2 228.2 208 177.8 263.8C127.4 319.6 63.7 376.3 -7.2 386.3C-78.2 396.3 -156.4 359.5 -191.1 298.6C-225.8 237.8 -217 152.7 -245.8 76.9C-274.5 1 -340.8 -65.6 -332.1 -112.8C-323.5 -159.9 -239.9 -187.6 -172.1 -197.2C-104.2 -206.8 -52.1 -198.3 4.5 -204.5C61.1 -210.7 122.3 -231.6 202.5 -226" fill="#FF0066"></path></g></svg>