<svg id="visual" viewBox="0 0 900 600" width="900" height="600" xmlns="http://www.w3.org/2000/svg" xmlns:xlink="http://www.w3.org/1999/xlink" version="1.1"><path d="M244 0L256 14.3C268 28.7 292 57.3 276.5 85.8C261 114.3 206 142.7 194.2 171.2C182.3 199.7 213.7 228.3 226.2 257C238.7 285.7 232.3 314.3 218.2 343C204 371.7 182 400.3 195.2 428.8C208.3 457.3 256.7 485.7 282.7 514.2C308.7 542.7 312.3 571.3 314.2 585.7L316 600L0 600L0 585.7C0 571.3 0 542.7 0 514.2C0 485.7 0 457.3 0 428.8C0 400.3 0 371.7 0 343C0 314.3 0 285.7 0 257C0 228.3 0 199.7 0 171.2C0 142.7 0 114.3 0 85.8C0 57.3 0 28.7 0 14.3L0 0Z" fill="#0066FF" stroke-linecap="round" stroke-linejoin="miter"></path></svg>